<svg id="Layer_1" data-name="Layer 1" xmlns="http://www.w3.org/2000/svg" viewBox="0 0 400 212.76"><defs><style>.cls-1{fill:#d7282f;}</style></defs><path class="cls-1" d="M400,36.56l-17.95,8.23-57,26.1-2.67,77.59a46.67,46.67,0,0,1-3.8,16.29,56,56,0,0,1-15.45,20A84,84,0,0,1,285.8,196a146.68,146.68,0,0,1-35.57,12.1c-23.93,5.07-48,5.67-71.73,3.43-23.72-2.45-47.35-7.84-69.56-18.41,3.67,1.25,7.34,2.39,11.14,3.43,16.75,7.08,34.53,9.92,52.2,10.73a197.24,197.24,0,0,0,26.63-.7,183.91,183.91,0,0,0,26.56-3.66,161.13,161.13,0,0,0,51.27-20.43,112.56,112.56,0,0,0,23.13-18.74c3.61-3.63,2.82-10.64,2.84-15.26,0-6.57-1.56-50.81-2.08-66.37l-135.24,62-3.76,1.69-1.42-.71L0,61.3l164.05,62.55,46.39-20.59L162.67,79.5,112.61,96.06l49-27,1.08-.54,1.51.6,64.46,26,54.2-24L236,47.79,187.43,62.33l35.78-20.92-60.5-30.19-50.1,17.39L161.84,2.45l.92-.49,1.25.49L307.6,60.26,361,36.62,312.32,13l-50,15.59L311.15.71,312.4,0l1.8.76L382.05,29.1Z"/></svg>