<svg id="Layer_1" data-name="Layer 1" xmlns="http://www.w3.org/2000/svg" viewBox="0 0 400 313.51"><defs><style>.cls-1{fill:#d7282f;}.cls-2{fill:#101820;}</style></defs><path class="cls-1" d="M367.3,30.58l-15,6.89L304.6,59.3l-2.23,64.9a39.31,39.31,0,0,1-3.18,13.63,46.91,46.91,0,0,1-12.92,16.73,70.92,70.92,0,0,1-14.5,9.39A123,123,0,0,1,242,174.06c-20,4.24-40.13,4.74-60,2.88-19.84-2.05-39.6-6.57-58.18-15.41,3.07,1.05,6.14,2,9.32,2.87,14,5.93,28.89,8.3,43.66,9a164,164,0,0,0,22.28-.59,153,153,0,0,0,22.21-3.06,134.86,134.86,0,0,0,42.89-17.09A93.91,93.91,0,0,0,283.54,137c3-3,2.36-8.89,2.38-12.76,0-5.49-1.31-42.5-1.75-55.51L171.05,120.51l-3.15,1.41-1.18-.59-134-70L169.93,103.6l38.8-17.23L168.78,66.5,126.9,80.36l41-22.57.91-.45,1.26.5L224,79.63l45.34-20.06L230.11,40,189.49,52.14l29.93-17.5L168.81,9.39,126.9,23.93,168.08,2.05l.77-.41,1,.41L290,50.41l44.64-19.78L294,10.89l-41.81,13L293,.59,294,0l1.5.64,56.76,23.7Z"/><path class="cls-2" d="M276.64,313.5H235.41a8.91,8.91,0,0,1,0-17.81h41.23a12.13,12.13,0,0,0,0-24.25H252a29.94,29.94,0,1,1,0-59.87h41.23a8.91,8.91,0,0,1,0,17.81H252a12.13,12.13,0,0,0,0,24.25h24.65a29.94,29.94,0,0,1,0,59.87Z"/><path class="cls-2" d="M354.31,271.45A12.13,12.13,0,0,0,342.43,286c1.12,5.75,6.5,9.7,12.36,9.7h35.85a9.23,9.23,0,0,1,9.25,7.46,8.91,8.91,0,0,1-8.8,10.35H354.31A29.91,29.91,0,0,1,333,262.54a29.81,29.81,0,0,1-8.63-20.28c-.41-16.88,14.34-30.71,31.23-30.71h35a9.23,9.23,0,0,1,9.25,7.47,8.92,8.92,0,0,1-8.8,10.35H354.85c-5.88,0-11.28,3.95-12.41,9.71a12.12,12.12,0,0,0,11.87,14.55h10.53a8.91,8.91,0,0,1,8.91,8.91h0a8.91,8.91,0,0,1-8.91,8.91Z"/><path class="cls-2" d="M204.18,250.39c-1.26,19.34-18.2,33.95-37.58,33.95H141.17a3.66,3.66,0,0,0-3.66,3.66v16.6a8.92,8.92,0,0,1-10.35,8.8,9.22,9.22,0,0,1-7.46-9.25V275.44a8.9,8.9,0,0,1,8.9-8.91h39.28a18.57,18.57,0,0,0,0-37.14H129.06a9.22,9.22,0,0,1-9.25-7.46,8.91,8.91,0,0,1,8.79-10.35h39.28A36.41,36.41,0,0,1,204.18,250.39Z"/><path class="cls-1" d="M136.31,252.41H124.17a4.46,4.46,0,0,1,0-8.91h12.14a4.46,4.46,0,0,1,0,8.91Z"/><path class="cls-2" d="M50.94,211.58a51,51,0,1,0,51,50.94A51,51,0,0,0,50.94,211.58Zm0,84.12a33.16,33.16,0,1,1,33.13-33.18A33.2,33.2,0,0,1,50.94,295.7Z"/><path class="cls-1" d="M50.94,284.18a4.46,4.46,0,0,1-4.45-4.45V271.8a4.46,4.46,0,0,1,8.91,0v7.93A4.46,4.46,0,0,1,50.94,284.18Z"/><path class="cls-1" d="M50.94,257.73a4.46,4.46,0,0,1-4.45-4.46v-7.92a4.46,4.46,0,1,1,8.91,0v7.92A4.46,4.46,0,0,1,50.94,257.73Z"/><path class="cls-1" d="M68.13,267H60.21a4.46,4.46,0,1,1,0-8.91h7.92a4.46,4.46,0,1,1,0,8.91Z"/><path class="cls-1" d="M41.68,267H33.76a4.46,4.46,0,1,1,0-8.91h7.92a4.46,4.46,0,1,1,0,8.91Z"/></svg>