<svg id="Layer_1" data-name="Layer 1" xmlns="http://www.w3.org/2000/svg" viewBox="0 0 1932.43 400"><defs><style>.cls-1{fill:#d7282f;}.cls-2{fill:#fff;}</style></defs><path class="cls-1" d="M752,68.74,718.27,84.21,611.12,133.28l-5,145.87A87.93,87.93,0,0,1,599,309.78c-7.93,17.42-18.53,28.58-29,37.6a158.57,158.57,0,0,1-32.58,21.1c-22.06,11.07-44.43,17.93-66.88,22.74-45,9.53-90.2,10.66-134.86,6.46-44.59-4.61-89-14.75-130.79-34.63,6.91,2.36,13.82,4.51,21,6.46,31.48,13.31,64.92,18.64,98.13,20.18A372,372,0,0,0,374,388.36c16.64-1.34,33.36-3.08,49.93-6.87,33-7.17,65.7-19.36,96.39-38.41a211.85,211.85,0,0,0,43.49-35.24c6.79-6.82,5.3-20,5.34-28.68,0-12.36-3-95.54-3.92-124.78L310.94,270.86,303.87,274l-2.67-1.33L0,115.25l308.42,117.6,87.22-38.72-89.81-44.67L211.71,180.6l92.16-50.7,2-1,2.83,1.13,121.2,49,101.89-45.08-88.15-44-91.3,27.35,67.28-39.33L305.91,21.1l-94.2,32.68L304.26,4.61,306,3.69l2.36.92,270,108.69L678.63,68.84,587.18,24.48l-94,29.3L585,1.33,587.33,0l3.38,1.43L718.27,54.7Z"/><path class="cls-2" d="M1568.39,350.41H1446.73a26.29,26.29,0,0,1,0-52.57h121.66a35.78,35.78,0,1,0,0-71.55h-72.74a88.34,88.34,0,1,1,0-176.67h121.66a26.28,26.28,0,0,1,0,52.56H1495.65a35.78,35.78,0,1,0,0,71.55h72.74a88.34,88.34,0,0,1,0,176.68Z"/><path class="cls-2" d="M1797.61,226.31a35.8,35.8,0,0,0-35,42.87c3.29,17,19.17,28.62,36.45,28.62h105.8c13.14,0,25.27,9,27.29,22a26.29,26.29,0,0,1-25.95,30.54H1797.61A88.28,88.28,0,0,1,1734.79,200a88.08,88.08,0,0,1-25.46-59.85c-1.21-49.83,42.32-90.62,92.16-90.62h103.32c13.14,0,25.27,9,27.29,22a26.3,26.3,0,0,1-25.95,30.55h-107c-17.34,0-33.28,11.66-36.62,28.67a35.81,35.81,0,0,0,35,42.95h31.07A26.28,26.28,0,0,1,1855,200h0a26.29,26.29,0,0,1-26.28,26.28Z"/><path class="cls-2" d="M1354.57,164.18c-3.73,57.07-53.71,100.18-110.9,100.18h-75.05a10.81,10.81,0,0,0-10.8,10.8v49a26.29,26.29,0,0,1-30.54,25.94c-13-2-22-14.15-22-27.29V238.08a26.27,26.27,0,0,1,26.28-26.28h115.9a54.8,54.8,0,0,0,0-109.6H1132.88c-13.13,0-25.27-9-27.29-22a26.29,26.29,0,0,1,26-30.54h115.9A107.47,107.47,0,0,1,1354.57,164.18Z"/><path class="cls-1" d="M1154.27,170.12h-35.81a13.14,13.14,0,0,1,0-26.28h35.81a13.14,13.14,0,1,1,0,26.28Z"/><path class="cls-2" d="M902.36,49.64C819.44,49.64,752,117.05,752,200s67.42,150.47,150.34,150.47S1052.69,282.89,1052.69,200,985.28,49.64,902.36,49.64Zm0,248.23a97.84,97.84,0,1,1,97.77-97.9A97.95,97.95,0,0,1,902.36,297.87Z"/><path class="cls-1" d="M902.36,263.88a13.14,13.14,0,0,1-13.14-13.14V227.35a13.14,13.14,0,0,1,26.28,0v23.39A13.14,13.14,0,0,1,902.36,263.88Z"/><path class="cls-1" d="M902.36,185.82a13.14,13.14,0,0,1-13.14-13.14V149.29a13.14,13.14,0,0,1,26.28,0v23.39A13.14,13.14,0,0,1,902.36,185.82Z"/><path class="cls-1" d="M953.09,213.16H929.7a13.14,13.14,0,0,1,0-26.28h23.39a13.14,13.14,0,0,1,0,26.28Z"/><path class="cls-1" d="M875,213.16h-23.4a13.14,13.14,0,1,1,0-26.28H875a13.14,13.14,0,0,1,0,26.28Z"/></svg>