<svg id="Layer_2" data-name="Layer 2" xmlns="http://www.w3.org/2000/svg" viewBox="0 0 1467.61 1185.27"><defs><style>.cls-1{fill:#101820;}.cls-2{fill:#fff;}.cls-3{fill:#d7282f;}</style></defs><path class="cls-1" d="M1406.81,1143H1016.09v-76.17H841.76l-10.53,12.26-42,48.82a76.77,76.77,0,0,1-14.79,13.26,55,55,0,0,1-6.61,4,78.8,78.8,0,0,1-14.92,6.57h0a57.45,57.45,0,0,1-6.19,1.82,86.94,86.94,0,0,1-21.43,2.74h-.43a86.15,86.15,0,0,1-21.87-3,66.82,66.82,0,0,1-7.13-2.28,81.71,81.71,0,0,1-13.51-6.13c-1.43-.75-3.17-1.73-5.14-3l-1-.67-1-.71a81.86,81.86,0,0,1-14.05-12.82l-.26-.31-.27-.32-40.47-48.6-9.69-11.66H451.61V1143H60.9L166,1008.27,60.9,873.58H267.69V784.4H375.34L147.41,510.47a72.16,72.16,0,0,1-11-22.2,53.75,53.75,0,0,1-2.21-10.55,69.51,69.51,0,0,1,0-19.75,53.2,53.2,0,0,1,1.72-9.05A71.88,71.88,0,0,1,146,427.32L290.52,217.18l.05-.11.08-.09c15-21.61,40.72-34.5,68.75-34.5h47.34l-39-27.87,103.35-48.17L525.77,126,684.09,32.78,797.92,75l71.87-41.75L1118.68,139.6l-93.58,42.88h82.55c28.14,0,53.87,13,68.83,34.69l140.06,203.37a71.66,71.66,0,0,1,18,47.3,58.8,58.8,0,0,1-3.08,18.54,71.56,71.56,0,0,1-7.16,17l-239.78,281h115.81v89.18h206.52l-105.08,134.69Z"/><path class="cls-2" d="M369.08,286.52H573.16l-103-53.88H359.4c-11.48,0-22,5-27.56,13L187.21,455.85a21.42,21.42,0,0,0-3,6.67A6.66,6.66,0,0,0,184,464a20.36,20.36,0,0,0-.05,7.26,9,9,0,0,0,.31,2,23,23,0,0,0,3.48,7.43c.18.24.5.35.72.63a1.32,1.32,0,0,0,.17.46l252,302.67h70.11L245.62,466Zm306.65,780.27L699.17,1095a32.51,32.51,0,0,0,5.54,5,17.55,17.55,0,0,0,1.64.87,30.32,30.32,0,0,0,6.61,3,18.78,18.78,0,0,0,2.49.85,36.74,36.74,0,0,0,9.42,1.42h.43a37.92,37.92,0,0,0,9.62-1.32,23.9,23.9,0,0,0,2.41-.75A29.73,29.73,0,0,0,744,1101a10.19,10.19,0,0,0,1.55-.86,27.18,27.18,0,0,0,5.61-4.88l24.46-28.46Zm601.53-614.86-142.1-206.32c-5.5-8-16-13-27.51-13H980.59l-1.87,53.88h119.21l123.36,179.11-274,318.77h71L1278.23,482s0-.17.11-.22a22.45,22.45,0,0,0,4.77-9v-.05c.41-1.66,1.23-3.2,1.23-5A22.25,22.25,0,0,0,1277.26,451.93Z"/><path class="cls-2" d="M666.92,391.26H625.27a43.4,43.4,0,0,0-42.15,32.9A109.37,109.37,0,0,0,552,401.79c-.41-4.92-.76-9.9-1.08-14.9q-.91-14.62-1.39-29.61-.36-11.4-.45-23C597.94,366.66,647.94,387.23,666.92,391.26Z"/><path class="cls-2" d="M792.94,394.7A76.2,76.2,0,0,0,753.2,424c-1.51-1.89-3.07-3.75-4.72-5.53a86,86,0,0,0-28.87-20.2c7.12.39,14.16.64,21,.64A326.42,326.42,0,0,0,792.94,394.7Z"/><path class="cls-2" d="M862.92,607.32q-3,7.51-6.15,14.69v0a381.74,381.74,0,0,1-17.22,34.59v0C818.22,694.3,793.12,721.26,765.8,734a84.87,84.87,0,0,1-36.1,8.3,81.77,81.77,0,0,1-26-4.27c-30.19-10-58-37.15-81.39-77.08a367.47,367.47,0,0,1-18-35q-7.9-17.58-14.88-37.3a43.11,43.11,0,0,0,29,18.72,46.16,46.16,0,0,0,6.82.52,43.49,43.49,0,0,0,43.46-43.45v-1.52h15.14a88.38,88.38,0,0,0,76.54-43.75,74.56,74.56,0,0,0,8.12,7.46A43.45,43.45,0,0,0,790,607.89h63.58A74.12,74.12,0,0,0,862.92,607.32Z"/><path class="cls-2" d="M910.29,329.36q0,11.53-.35,22.92c-.24,10-.67,19.84-1.23,29.62-.39,6.65-.83,13.22-1.35,19.76a43.32,43.32,0,0,0-28.22-10.42H815.57c-2.12,0-4.2.11-6.27.28,18.69-4.22,35.12-9.9,50.11-17.43a137.36,137.36,0,0,0,28.27-18.41l0,0,.06,0c1.39-1.21,2.9-2.53,4.47-4v-4.06l3.27.87A99.26,99.26,0,0,0,910.29,329.36Z"/><path class="cls-2" d="M569.67,351.87v29.56L551,386.89l-23,6.71a109.4,109.4,0,0,0-22.48-2.34,107.84,107.84,0,0,0-65.54,22.14c-.93-8.12-1.13-13.09-1.15-13.91l-.39-12.32,111.17-29.89Z"/><path class="cls-2" d="M663.65,647.71l-5.48,23.52a213.13,213.13,0,0,1-31-8.51s0,0-.05,0c-1.56-.56-3.14-1.12-4.79-1.73l-.08,0-.24-.09c-1.6-.59-3.25-1.23-4.92-1.88a4.91,4.91,0,0,1-.63-.26c-1.57-.61-3.16-1.24-4.78-1.93l-.84-.35c-1.57-.65-3.15-1.34-4.77-2-.39-.17-.8-.38-1.19-.54-1.52-.69-3-1.36-4.61-2.1,0,0,0,0,0,0-6.91-3.23-14.14-7-21.55-11.28a4.4,4.4,0,0,0,.39.26c-.65-.37-1.32-.78-2-1.17l-1.94-1.13q-2.36-1.42-4.75-2.92l-1.08-.67c-1.93-1.22-3.86-2.49-5.79-3.79-.56-.37-1.1-.76-1.66-1.13-1.41-1-2.84-1.95-4.27-3-.67-.47-1.34-1-2-1.45-1.39-1-2.78-2-4.18-3.09-.59-.46-1.19-.91-1.78-1.35-1.95-1.51-3.9-3-5.83-4.63-.25-.2-.47-.41-.71-.59-1.71-1.41-3.42-2.86-5.11-4.33l-1.88-1.67c-1.35-1.19-2.69-2.42-4-3.66-.44-.41-.89-.82-1.33-1.25a106.74,106.74,0,0,0,27-10.49c.84.72,1.69,1.41,2.53,2.11s1.76,1.55,2.67,2.27,2.08,1.65,3.12,2.49,1.77,1.39,2.64,2.08c1.06.82,2.14,1.58,3.2,2.36.85.65,1.73,1.3,2.6,1.93,1.08.78,2.17,1.53,3.25,2.27.84.57,1.69,1.19,2.53,1.74,1.13.77,2.24,1.49,3.38,2.22.78.52,1.58,1,2.36,1.54,1.17.74,2.34,1.45,3.49,2.15.74.45,1.47.91,2.19,1.34l3.62,2.1,1.4.8,1,.59c1.09.62,2.19,1.19,3.27,1.77.5.28,1,.57,1.52.83l.91.49.89.46,2.33,1.17c.4.22.83.45,1.26.65l.44.24c1.29.63,2.53,1.23,3.78,1.82.29.13.59.28.89.43.5.22,1,.47,1.47.69,1.35.63,2.69,1.24,4,1.84l1.41.61,3.32,1.43,1.27.52c1.19.5,2.38,1,3.53,1.43l1.37.54c1.21.48,2.4.93,3.55,1.36l1.23.44c.94.36,1.87.69,2.78,1l1,.37c1.09.37,2.17.74,3.21,1.07l1.13.4c1,.31,2,.65,3,.94l.89.28,2.34.71.78.22c.87.26,1.73.5,2.54.72l.78.23,2.31.61a4.61,4.61,0,0,1,.46.13l1.75.43.85.22c.39.09.75.17,1.08.26l.54.11.13,0c.13,0,.24.06.35.07.3.08.6.13.86.21l.68.13c.13,0,.26.05.38.09C663,647.6,663.58,647.69,663.65,647.71Z"/><path class="cls-2" d="M934.65,597.21l-2.95,2.84-1.84,1.73c-1.4,1.28-2.77,2.53-4.17,3.77l-1.76,1.56c-1.77,1.55-3.55,3-5.33,4.52-.17.15-.34.28-.49.43q-2.94,2.38-5.9,4.68L910.55,618c-1.45,1.1-2.88,2.16-4.32,3.22-.64.46-1.29.91-1.92,1.37-1.47,1-2.92,2.06-4.38,3-.52.35-1,.72-1.56,1.06-2,1.32-3.9,2.58-5.84,3.82-.33.21-.68.41-1,.64-1.6,1-3.19,2-4.79,2.93l-2,1.15c-.52.32-1,.63-1.56.91-7.42,4.29-14.66,8-21.55,11.28a.07.07,0,0,0-.06,0c-1.39.65-2.77,1.26-4.12,1.87l-1.68.77c-1.43.63-2.84,1.22-4.23,1.8-.47.2-.93.41-1.38.59-1.44.6-2.84,1.15-4.25,1.71-.37.17-.78.34-1.15.49l-4.4,1.67c-.25.09-.53.18-.77.28h-.07v0c-1.51.56-2.95,1.06-4.37,1.56l-.48.17c-1.52.54-3,1-4.44,1.51a.48.48,0,0,0-.2.07c-3,1-5.76,1.82-8.31,2.56l-.09,0c-5,1.47-9.18,2.49-12.24,3.18l-.21,0c-.74.17-1.39.32-2,.43,0,0-.05,0-.09,0-1,.18-1.65.33-2.21.45l-1.17.2-4.7-20.18-.78-3.34,1.5-.3.52-.11c.19,0,.38-.07.6-.13s.76-.17,1.21-.28h.07a.07.07,0,0,1,.06,0c.13,0,.27-.07.42-.09l1.27-.31.8-.19,1.95-.5.2-.06,2.47-.65.6-.17,2.73-.78.5-.14,2.69-.82c.21-.08.43-.13.65-.21l3.16-1c.3-.09.6-.2.89-.3,1.12-.37,2.25-.76,3.42-1.17.24-.07.48-.16.71-.24,1-.37,2.1-.74,3.15-1.15.34-.11.67-.22,1-.35,1.21-.45,2.45-.93,3.71-1.42l1.16-.46c1.3-.52,2.6-1,3.93-1.6l.8-.33q1.78-.75,3.63-1.56l1.22-.54q2.07-.9,4.16-1.88c.45-.2.88-.41,1.32-.63l1-.44c1.28-.62,2.56-1.23,3.86-1.88l.19-.09,1.24-.64,1.75-.89v0c.61-.29,1.23-.61,1.86-.94.22-.13.46-.25.69-.36.39-.22.79-.44,1.2-.65l3.74-2c.28-.17.57-.32.85-.48s.69-.39,1-.6c1.38-.78,2.73-1.56,4.11-2.38l1.58-1c1.37-.82,2.75-1.66,4.12-2.53l1.64-1.08c1.37-.87,2.73-1.76,4.1-2.67.58-.39,1.17-.82,1.75-1.21,1.34-.93,2.69-1.86,4-2.82.6-.43,1.19-.88,1.78-1.32,1.34-1,2.68-1.93,4-3l1.84-1.46c1.32-1,2.64-2,3.94-3.11.61-.5,1.22-1,1.84-1.56,1.3-1.09,2.6-2.17,3.88-3.28l1.93-1.75c1.25-1.13,2.51-2.25,3.75-3.4l2-2c.8-.76,1.6-1.52,2.4-2.3A76.29,76.29,0,0,0,934.65,597.21Z"/><path class="cls-2" d="M1023.53,382.82l-.26,8.4H975.41a77.77,77.77,0,0,0-22.87,3.46L908.71,381.9l-16.46-4.82V347.53l3.27.87,14.42,3.88Z"/><polygon class="cls-2" points="616.86 911.88 642.2 942.32 616.86 942.32 616.86 911.88"/><path class="cls-2" d="M703.75,738.05c.37-16.33-.49-27.46-.49-27.46l31-1.89v-.08l.6,0,.57,0v.08l31,1.89s-.7,9.35-.53,23.43a317.79,317.79,0,0,0,4.29,50.38H699.51A315.78,315.78,0,0,0,703.75,738.05Z"/><path class="cls-1" d="M892.25,347.53v4.06c1.06-1,2.16-2,3.27-3.19Z"/><path class="cls-3" d="M993.4,141.83l-23.16,10.62-73.53,33.67-3.45,100.1a60.53,60.53,0,0,1-4.9,21c-5.44,11.95-12.71,19.61-19.93,25.8a109,109,0,0,1-22.36,14.48c-15.13,7.59-30.48,12.3-45.89,15.6-30.87,6.54-61.89,7.31-92.54,4.43-30.6-3.16-61.09-10.12-89.74-23.76,4.74,1.62,9.48,3.1,14.38,4.43,21.6,9.14,44.55,12.8,67.33,13.85a256,256,0,0,0,34.37-.91c11.42-.92,22.89-2.11,34.26-4.71a208.44,208.44,0,0,0,66.15-26.36,145.91,145.91,0,0,0,29.84-24.19c4.65-4.68,3.63-13.72,3.66-19.68,0-8.47-2-65.55-2.69-85.62L690.72,280.53l-4.84,2.18-1.84-.92-206.68-108L689,254.45l59.85-26.57-61.63-30.65L622.64,218.6l63.24-34.8,1.4-.7,1.94.77,83.17,33.6,69.91-30.93-60.49-30.22-62.64,18.76,46.16-27-78.05-38.94-64.64,22.42,63.51-33.74,1.18-.63,1.62.63,185.24,74.58L943,141.9l-62.75-30.43-64.48,20.1,63-36,1.62-.91,2.31,1,87.54,36.55Z"/><path class="cls-2" d="M853.58,578.17H790a13.74,13.74,0,1,1,0-27.47h63.58a18.7,18.7,0,1,0,0-37.39h-38a46.17,46.17,0,1,1,0-92.34h63.58a13.74,13.74,0,1,1,0,27.47H815.56a18.7,18.7,0,1,0,0,37.39h38a46.17,46.17,0,1,1,0,92.34Z"/><path class="cls-2" d="M973.37,513.32a18.71,18.71,0,0,0-18.32,22.4c1.73,8.87,10,15,19.06,15h55.29c6.86,0,13.2,4.72,14.26,11.51a13.74,13.74,0,0,1-13.56,16H973.37a46.14,46.14,0,0,1-32.83-78.57,46.07,46.07,0,0,1-13.31-31.28c-.63-26,22.12-47.36,48.17-47.36h54c6.86,0,13.2,4.73,14.26,11.51a13.73,13.73,0,0,1-13.56,16H974.2c-9.06,0-17.39,6.1-19.14,15a18.71,18.71,0,0,0,18.31,22.44h16.24a13.74,13.74,0,0,1,13.74,13.74h0a13.74,13.74,0,0,1-13.74,13.74Z"/><path class="cls-2" d="M741.83,480.84c-2,29.83-28.07,52.36-58,52.36H644.65a5.65,5.65,0,0,0-5.65,5.65v25.6A13.74,13.74,0,0,1,623,578c-6.78-1-11.51-7.39-11.51-14.26V519.47a13.73,13.73,0,0,1,13.74-13.74h60.57a28.64,28.64,0,0,0,0-57.28H626c-6.87,0-13.21-4.72-14.26-11.5a13.74,13.74,0,0,1,13.56-16h60.57A56.17,56.17,0,0,1,741.83,480.84Z"/><path class="cls-3" d="M637.15,484H618.43a6.87,6.87,0,1,1,0-13.74h18.72a6.87,6.87,0,0,1,0,13.74Z"/><path class="cls-2" d="M505.49,421a78.61,78.61,0,1,0,78.57,78.57A78.64,78.64,0,0,0,505.49,421Zm0,129.74a51.14,51.14,0,1,1,51.1-51.17A51.19,51.19,0,0,1,505.49,550.72Z"/><path class="cls-3" d="M505.49,533a6.86,6.86,0,0,1-6.86-6.87V513.86a6.87,6.87,0,1,1,13.73,0v12.22A6.86,6.86,0,0,1,505.49,533Z"/><path class="cls-3" d="M505.49,492.16a6.87,6.87,0,0,1-6.86-6.87V473.06a6.87,6.87,0,1,1,13.73,0v12.23A6.87,6.87,0,0,1,505.49,492.16Z"/><path class="cls-3" d="M532,506.44H519.78a6.87,6.87,0,1,1,0-13.73H532a6.87,6.87,0,0,1,0,13.73Z"/><path class="cls-3" d="M491.21,506.44H479a6.87,6.87,0,0,1,0-13.73h12.23a6.87,6.87,0,1,1,0,13.73Z"/><polygon class="cls-2" points="401.45 923.74 401.45 1092.8 163.65 1092.8 229.6 1008.27 163.65 923.74 401.45 923.74"/><polygon class="cls-3" points="401.45 1092.8 317.85 1016.63 317.85 834.56 401.45 834.56 401.45 1092.8"/><polygon class="cls-2" points="1066.26 923.74 1066.26 1092.8 1304.05 1092.8 1238.1 1008.27 1304.05 923.74 1066.26 923.74"/><polygon class="cls-3" points="1066.26 1092.8 1149.86 1016.63 1149.86 834.56 1066.26 834.56 1066.26 1092.8"/><rect class="cls-2" x="317.85" y="834.56" width="832.29" height="182.06"/><path class="cls-3" d="M393.63,945.22,386.37,987H357.51l21.27-122.85,44.12.09q20.5,0,32.28,11.37t10.33,29.51a40.08,40.08,0,0,1-7.93,21.49,43.94,43.94,0,0,1-18.27,13.91,64.65,64.65,0,0,1-25.43,4.8Zm4-22.79,17.38.17q11-.26,16.79-7.14t4.64-17a13,13,0,0,0-3.92-8.16,13.42,13.42,0,0,0-8.56-3.34l-20.17-.09Z"/><path class="cls-3" d="M491.63,964.2h50l-4,22.78H458.81l21.27-122.85H509Z"/><path class="cls-3" d="M615.63,964H576.4l-10.89,23H533.7l65.06-122.85h27.17L648.62,987h-30ZM587.2,941.17h25.48l-5.4-42.36Z"/><path class="cls-3" d="M692.38,917.29l31-53.16h32.48l-53,80.07L695.58,987H666.22l7.93-45.56-24.55-77.2,30-.09Z"/><path class="cls-3" d="M782.88,988.67q-19.15-.42-30.71-12.66t-13.08-32.74a93.69,93.69,0,0,1,1.6-23.83,83.82,83.82,0,0,1,8.69-25.27A63.75,63.75,0,0,1,765,874.93a53.38,53.38,0,0,1,36.11-12.49,44.47,44.47,0,0,1,22,5.78,40.31,40.31,0,0,1,15.06,15.91,57.12,57.12,0,0,1,6.59,23.62,96.83,96.83,0,0,1-1.14,21.31,87.62,87.62,0,0,1-6.67,22.78A69.43,69.43,0,0,1,824.39,971a57.59,57.59,0,0,1-18.1,13.12A52.36,52.36,0,0,1,782.88,988.67Zm32.91-81.17q-.85-21.09-16.37-21.94-12-.59-19.83,9.49T769.21,924.8Q767.61,937,768,943.61q.84,21.43,16.54,22,10.29.51,17.72-7.38t10.71-23A110.79,110.79,0,0,0,815.79,907.5Z"/><path class="cls-3" d="M923.84,938H877.51L869,987H840.14L861.4,864.13h79.9l-4,22.87h-51l-4.89,28.26H927.8Z"/><path class="cls-3" d="M1007.67,938H961.35L952.83,987H924l21.26-122.85h79.91l-4,22.87h-51l-4.9,28.26h46.33Z"/><path class="cls-3" d="M1075.31,953.74q1.85-9.54-10.3-14.77l-13.84-5.74q-29.1-13.07-27.67-35.6a31.35,31.35,0,0,1,7.09-18.35q6.5-8.07,18-12.53a66.2,66.2,0,0,1,25.06-4.31q18.23.34,29.32,10.63t10.92,27.59h-28.68q.25-7.08-3-11.34t-10.67-4.43a22.35,22.35,0,0,0-12.83,3.37,13.73,13.73,0,0,0-6.58,9.54q-1.61,8.43,12.53,13.83t20.55,9.28q20.16,12.08,18.9,32.57a33.32,33.32,0,0,1-6.84,18.65q-6.15,8-17.08,12.4a63.12,63.12,0,0,1-24.51,4.22,59.06,59.06,0,0,1-18.48-3.12,40.69,40.69,0,0,1-14.6-8.61q-12.32-11.38-11.81-29.95l28.94.09q-.51,9.45,3.63,14.3t13.92,4.85a20.92,20.92,0,0,0,12.11-3.33A13.9,13.9,0,0,0,1075.31,953.74Z"/><path class="cls-2" d="M684.09,32.78,797.92,75l71.87-41.75L1118.68,139.6l-93.58,42.88h82.55c28.14,0,53.87,13,68.83,34.69l140.06,203.37a71.66,71.66,0,0,1,18,47.3,58.8,58.8,0,0,1-3.08,18.54,71.56,71.56,0,0,1-7.16,17l-239.78,281h115.81v89.18h206.52l-105.08,134.69L1406.81,1143H1016.09v-76.17H841.76l-10.53,12.26-42,48.82a76.77,76.77,0,0,1-14.79,13.26,55,55,0,0,1-6.61,4,78.8,78.8,0,0,1-14.92,6.57h0a57.45,57.45,0,0,1-6.19,1.82,86.94,86.94,0,0,1-21.43,2.74h-.43a86.15,86.15,0,0,1-21.87-3,66.82,66.82,0,0,1-7.13-2.28,81.71,81.71,0,0,1-13.51-6.13c-1.43-.75-3.17-1.73-5.14-3l-1-.67-1-.71a81.86,81.86,0,0,1-14.05-12.82l-.26-.31-.27-.32-40.47-48.6-9.69-11.66H451.61V1143H60.9L166,1008.27,60.9,873.58H267.69V784.4H375.34L147.41,510.47a72.16,72.16,0,0,1-11-22.2,53.75,53.75,0,0,1-2.21-10.55,69.51,69.51,0,0,1,0-19.75,53.2,53.2,0,0,1,1.72-9.05A71.88,71.88,0,0,1,146,427.32L290.52,217.18l.05-.11.08-.09c15-21.61,40.72-34.5,68.75-34.5h47.34l-39-27.87,103.35-48.17L525.77,126,684.09,32.78M681.18,0,669,7.16,522.67,93.3l-41.6-14.85-11.49-4.11L458.52,79.5,355.17,127.67,309,149.19l13.28,9.49a110,110,0,0,0-55.41,40.44L265.4,201l-.54,1.08L121.51,410.42a101.05,101.05,0,0,0-14.24,30.49,82,82,0,0,0-2.61,13.47,99.1,99.1,0,0,0,0,27.09,83.38,83.38,0,0,0,3.3,15.6,101.63,101.63,0,0,0,15.52,31.09l.5.68.54.64,187.38,225.2H238v89.17H0l37.46,48,90.83,116.41-90.83,116.4L0,1172.68H481.33v-76.17H596.52l.78.94,40.48,48.62.28.33.23.26.14.18.21.24a111.35,111.35,0,0,0,19.07,17.45l.09.06.09.07,1,.71.52.37.53.34,1,.67c2.4,1.57,4.82,3,7.23,4.26a112.06,112.06,0,0,0,17.54,8,96.73,96.73,0,0,0,9.86,3.12,115.28,115.28,0,0,0,29.3,3.92h.43a116.38,116.38,0,0,0,28.46-3.57c1.36-.32,2.61-.66,3.74-1h.08l.8-.26c1.55-.46,2.8-.88,3.65-1.17a107.18,107.18,0,0,0,20-8.74,81.9,81.9,0,0,0,9.52-5.82,106.44,106.44,0,0,0,20.26-18.22l42-48.82,1.64-1.91h131v76.17h481.32l-37.45-48-90.81-116.4,90.81-116.41,37.45-48H1230V754.68h-81.1l197.95-232,1.74-2,1.35-2.31a101.63,101.63,0,0,0,9.9-23.34,87.88,87.88,0,0,0,4.36-27.18,101.78,101.78,0,0,0-24.08-65.44L1201,200.31a109.35,109.35,0,0,0-54.1-40.92l45.25-20.73-61.75-26.39L881.47,5.91,867.76.05,854.87,7.54,795.11,42.25,694.42,4.91,681.18,0Z"/></svg>